<mxfile host="app.diagrams.net" modified="2023-11-29T15:03:52.340Z" agent="Mozilla/5.0 (Windows NT 10.0; Win64; x64) AppleWebKit/537.36 (KHTML, like Gecko) Chrome/119.0.0.0 Safari/537.36 Edg/119.0.0.0" version="22.1.5" etag="QGShJf3howixxdIDC5Fj" type="github">
  <diagram name="PÃ¡gina-1" id="xocXjT0hb17j2GzeZbNV">
    <mxGraphModel>
      <root>
        <mxCell id="0" />
        <mxCell id="1" parent="0" />
      </root>
    </mxGraphModel>
  </diagram>
</mxfile>
